<svg width="11" height="20" viewBox="0 0 11 20" fill="none" xmlns="http://www.w3.org/2000/svg">
<path d="M10.6205 0.990281C10.5044 0.873873 10.3664 0.781516 10.2146 0.7185C10.0627 0.655484 9.89991 0.623047 9.73549 0.623047C9.57107 0.623047 9.40827 0.655484 9.25641 0.7185C9.10454 0.781516 8.96661 0.873873 8.85049 0.990281L0.540491 9.30028C0.447788 9.3928 0.37424 9.50268 0.324059 9.62366C0.273877 9.74463 0.248047 9.87431 0.248047 10.0053C0.248047 10.1362 0.273877 10.2659 0.324059 10.3869C0.37424 10.5079 0.447788 10.6178 0.540491 10.7103L8.85049 19.0203C9.34049 19.5103 10.1305 19.5103 10.6205 19.0203C11.1105 18.5303 11.1105 17.7403 10.6205 17.2503L3.38049 10.0003L10.6305 2.75028C11.1105 2.27028 11.1105 1.47028 10.6205 0.990281Z" fill="white"/>
</svg>
