<?xml version="1.0" encoding="utf-8"?>
<!-- Generator: Adobe Illustrator 25.4.1, SVG Export Plug-In . SVG Version: 6.00 Build 0)  -->
<svg version="1.1" xmlns="http://www.w3.org/2000/svg" xmlns:xlink="http://www.w3.org/1999/xlink" x="0px" y="0px"
	 viewBox="0 0 16 14.1" style="enable-background:new 0 0 16 14.1;" xml:space="preserve">
<style type="text/css">
	.st0{display:none;}
	.st1{display:inline;fill:#8E3C3D;}
	.st2{fill:#EDEDED;}
</style>
<g id="Layer_2" class="st0">
	<rect x="-0.6" y="-0.2" class="st1" width="59" height="82"/>
</g>
<g id="Layer_1">
	<path class="st2" d="M5.2,9.4L5.2,9.4C5.2,9.4,5.2,9.4,5.2,9.4l8.5,0c0.2,0,0.4-0.1,0.5-0.3L16,2.5c0-0.1,0-0.3-0.1-0.4
		c-0.1-0.1-0.2-0.2-0.4-0.2H4.1L3.7,0.4C3.7,0.2,3.5,0,3.3,0H0.5C0.2,0,0,0.2,0,0.5s0.2,0.5,0.5,0.5h2.4C3,1.2,4.5,8.2,4.6,8.6
		C4.1,8.8,3.8,9.3,3.8,9.8c0,0.8,0.6,1.4,1.4,1.4h8.5c0.3,0,0.5-0.2,0.5-0.5s-0.2-0.5-0.5-0.5H5.2c-0.3,0-0.5-0.2-0.5-0.5
		C4.7,9.6,4.9,9.4,5.2,9.4z M14.9,2.8l-1.6,5.6H5.5L4.3,2.8H14.9z"/>
	<path class="st2" d="M4.7,12.7c0,0.8,0.6,1.4,1.4,1.4s1.4-0.6,1.4-1.4s-0.6-1.4-1.4-1.4S4.7,11.9,4.7,12.7z M6.1,12.2
		c0.3,0,0.5,0.2,0.5,0.5s-0.2,0.5-0.5,0.5s-0.5-0.2-0.5-0.5S5.8,12.2,6.1,12.2z"/>
	<path class="st2" d="M11.3,12.7c0,0.8,0.6,1.4,1.4,1.4c0.8,0,1.4-0.6,1.4-1.4s-0.6-1.4-1.4-1.4C11.9,11.3,11.3,11.9,11.3,12.7z
		 M12.7,12.2c0.3,0,0.5,0.2,0.5,0.5s-0.2,0.5-0.5,0.5c-0.3,0-0.5-0.2-0.5-0.5S12.5,12.2,12.7,12.2z"/>
</g>
</svg>
