<?xml version="1.0" encoding="utf-8"?>
<!-- Generator: Adobe Illustrator 25.4.1, SVG Export Plug-In . SVG Version: 6.00 Build 0)  -->
<svg version="1.1" id="Layer_1" xmlns="http://www.w3.org/2000/svg" xmlns:xlink="http://www.w3.org/1999/xlink" x="0px" y="0px"
	 viewBox="0 0 16.7 16.6" style="enable-background:new 0 0 16.7 16.6;" xml:space="preserve">
<style type="text/css">
	.st0{fill:none;stroke:#FFFFFF;}
	.st1{fill:#FFFFFF;}
</style>
<circle class="st0" cx="8.4" cy="8.4" r="7.7"/>
<path class="st1" d="M9.4,4.3c0.2,0,0.3,0.1,0.4,0.2c0.1,0.1,0.2,0.3,0.2,0.4c0,0.2-0.1,0.3-0.2,0.4C9.7,5.4,9.5,5.4,9.4,5.4
	c-0.2,0-0.3-0.1-0.4-0.2C8.8,5.2,8.8,5,8.8,4.9c0-0.2,0.1-0.3,0.2-0.4C9.1,4.3,9.2,4.3,9.4,4.3z M9.4,6.6l-1.2,4.1
	c-0.1,0.3-0.1,0.4-0.1,0.5c0,0.1,0,0.1,0.1,0.2c0,0,0.1,0.1,0.1,0.1c0.1,0,0.1,0,0.2-0.1c0.2-0.2,0.4-0.4,0.7-0.8l0.2,0.1
	c-0.3,0.4-0.6,0.7-0.9,1C8.2,11.9,8,12,7.7,12c-0.2,0-0.3,0-0.4-0.1c-0.1-0.1-0.2-0.2-0.2-0.4c0-0.1,0-0.4,0.1-0.7l0.8-2.6
	c0.1-0.4,0.2-0.7,0.2-0.8c0-0.1,0-0.2-0.1-0.2C8.1,7.1,8.1,7.1,7.9,7.1c-0.1,0-0.3,0-0.5,0.1V6.9L9.4,6.6z"/>
</svg>
