<?xml version="1.0" encoding="utf-8"?>
<!-- Generator: Adobe Illustrator 25.4.1, SVG Export Plug-In . SVG Version: 6.00 Build 0)  -->
<svg version="1.1" xmlns="http://www.w3.org/2000/svg" xmlns:xlink="http://www.w3.org/1999/xlink" x="0px" y="0px"
	 viewBox="0 0 16 14.1" style="enable-background:new 0 0 16 14.1;" xml:space="preserve">
<style type="text/css">
	.st0{display:none;}
	.st1{display:inline;fill:#8E3C3D;}
	.st2{fill:#636464;}
</style>
<g id="Layer_2" class="st0">
	<rect x="-0.6" y="-0.2" class="st1" width="59" height="82"/>
</g>
<g id="Layer_1">
	<path class="st2" d="M11.7,0c-0.9,0-1.7,0.3-2.4,0.8C8.7,1.3,8.3,2,8,2.5C7.7,2,7.3,1.3,6.6,0.8C5.9,0.3,5.1,0,4.2,0
		C1.8,0,0,2,0,4.6c0,2.8,2.3,4.8,5.7,7.7C6.3,12.8,7,13.4,7.7,14c0.1,0.1,0.2,0.1,0.3,0.1s0.2,0,0.3-0.1c0.7-0.6,1.4-1.2,1.9-1.7
		C13.7,9.4,16,7.4,16,4.6C16,2,14.2,0,11.7,0z"/>
</g>
</svg>
