<svg id="Layer_3" data-name="Layer 3" xmlns="http://www.w3.org/2000/svg" viewBox="0 0 38 38"><defs><style>.cls-1{fill:#fff;}</style></defs><rect class="cls-1" width="38" height="38" rx="6"/><path d="M23.91,11a.47.47,0,0,0-.47.47v6.59a.47.47,0,0,0,.47.47h6.56a.47.47,0,0,0,.47-.47A7.06,7.06,0,0,0,23.91,11Zm.47,6.59V12A6.12,6.12,0,0,1,30,17.59Z" transform="translate(-3.94)"/><path d="M24.78,26l-2.28-6.1V13.38a.47.47,0,0,0-.47-.47A7,7,0,1,0,22,27a6.93,6.93,0,0,0,2.47-.45A.46.46,0,0,0,24.78,26ZM22,26.06a6.11,6.11,0,0,1-.46-12.2v6.08a.45.45,0,0,0,0,.16l2.13,5.72A6.07,6.07,0,0,1,22,26.06Z" transform="translate(-3.94)"/><path d="M30.47,19.47H23.91a.47.47,0,0,0-.39.2.5.5,0,0,0-.05.43l2.31,6.18a.47.47,0,0,0,.6.27,7.08,7.08,0,0,0,4.56-6.61A.47.47,0,0,0,30.47,19.47Zm-4,6L24.59,20.4H30A6.16,6.16,0,0,1,26.48,25.49Z" transform="translate(-3.94)"/></svg>