<?xml version="1.0" encoding="utf-8"?>
<!-- Generator: Adobe Illustrator 25.4.1, SVG Export Plug-In . SVG Version: 6.00 Build 0)  -->
<svg version="1.1" xmlns="http://www.w3.org/2000/svg" xmlns:xlink="http://www.w3.org/1999/xlink" x="0px" y="0px"
	 viewBox="0 0 39 50" style="enable-background:new 0 0 39 50;" xml:space="preserve">
<style type="text/css">
	.st0{display:none;}
	.st1{display:inline;fill:#8E3C3D;}
	.st2{fill:#FFFFFF;}
	.st3{fill:none;stroke:#DFDEDE;}
</style>
<g id="Layer_2" class="st0">
	<rect x="4.6" y="11.4" class="st1" width="59" height="82"/>
</g>
<g id="Layer_1">
	<path class="st2" d="M6,0h27c3.3,0,6,2.7,6,6v38c0,3.3-2.7,6-6,6H6c-3.3,0-6-2.7-6-6V6C0,2.7,2.7,0,6,0z"/>
	<path d="M23.4,27.1h-0.7l-0.3-0.3c0.9-1,1.5-2.4,1.5-3.8c0-3.3-2.7-5.9-5.9-5.9c-3.3,0-5.9,2.7-5.9,5.9c0,3.3,2.7,5.9,5.9,5.9
		c1.5,0,2.8-0.5,3.8-1.5l0.3,0.3v0.7l4.6,4.6l1.4-1.4L23.4,27.1z M17.9,27.1c-2.3,0-4.1-1.8-4.1-4.1c0-2.3,1.8-4.1,4.1-4.1
		c2.3,0,4.1,1.8,4.1,4.1C22.1,25.2,20.2,27.1,17.9,27.1z"/>
	<path class="st3" d="M8,10.5h22"/>
	<path class="st3" d="M8,10.5h22"/>
	<path class="st3" d="M8,20.5h22"/>
	<path class="st3" d="M8,30.5h22"/>
	<path class="st3" d="M8,40h14"/>
	<path d="M23.4,27.1h-0.7l-0.3-0.3c0.9-1,1.5-2.4,1.5-3.8c0-3.3-2.7-5.9-5.9-5.9c-3.3,0-5.9,2.7-5.9,5.9c0,3.3,2.7,5.9,5.9,5.9
		c1.5,0,2.8-0.5,3.8-1.5l0.3,0.3v0.7l4.6,4.6l1.4-1.4L23.4,27.1z M17.9,27.1c-2.3,0-4.1-1.8-4.1-4.1c0-2.3,1.8-4.1,4.1-4.1
		c2.3,0,4.1,1.8,4.1,4.1C22.1,25.2,20.2,27.1,17.9,27.1z"/>
</g>
</svg>
