<?xml version="1.0" encoding="utf-8"?>
<!-- Generator: Adobe Illustrator 25.4.1, SVG Export Plug-In . SVG Version: 6.00 Build 0)  -->
<svg version="1.1" xmlns="http://www.w3.org/2000/svg" xmlns:xlink="http://www.w3.org/1999/xlink" x="0px" y="0px"
	 viewBox="0 0 14.4 16" style="enable-background:new 0 0 14.4 16;" xml:space="preserve">
<style type="text/css">
	.st0{display:none;}
	.st1{display:inline;fill:#8E3C3D;}
	.st2{clip-path:url(#SVGID_00000037690234978517865780000007040353478729093821_);}
	.st3{fill:#FFFFFF;}
</style>
<g id="Layer_2" class="st0">
	<rect x="-0.6" y="-0.2" class="st1" width="59" height="82"/>
</g>
<g id="Layer_1">
	<g>
		<defs>
			<rect id="SVGID_1_" x="-0.8" width="16" height="16"/>
		</defs>
		<clipPath id="SVGID_00000129177540790234274170000007721673322224592304_">
			<use xlink:href="#SVGID_1_"  style="overflow:visible;"/>
		</clipPath>
		<g style="clip-path:url(#SVGID_00000129177540790234274170000007721673322224592304_);">
			<path class="st3" d="M12.5,0H1.8C0.8,0,0,0.8,0,1.8v11.6c0,0.5,0.4,0.9,0.9,0.9H5c0.2,0,0.3-0.1,0.3-0.3S5.2,13.7,5,13.7H0.9
				c-0.2,0-0.3-0.1-0.3-0.3V1.8c0-0.7,0.5-1.2,1.2-1.2h9.3c-0.3,0.3-0.4,0.7-0.4,1.2v10.1c0,0.3-0.2,0.5-0.5,0.5
				c-0.2,0-0.4-0.1-0.5-0.4l-0.5-1.4C9.1,10.2,8.7,10,8.3,10c-0.5,0-1,0.4-1,1v0.2H5.7c-0.2,0-0.3,0.1-0.3,0.3
				c0,0.2,0.1,0.3,0.3,0.3h1.6v1.6c0,0.5,0.1,0.9,0.3,1.3L8,15.8C8.1,15.9,8.2,16,8.3,16c0,0,0.1,0,0.1,0c0.2-0.1,0.2-0.2,0.2-0.4
				l-0.5-1.1c-0.1-0.3-0.2-0.7-0.2-1.1v-2.4c0-0.2,0.2-0.4,0.4-0.4c0.2,0,0.3,0.1,0.3,0.2l0.5,1.4c0.2,0.5,0.6,0.8,1.1,0.8
				c0.6,0,1.1-0.5,1.1-1.1V6.5l0.4,0.4c0.7,0.7,1.2,1.7,1.2,2.8V13c0,0.9-0.2,1.7-0.6,2.5c-0.1,0.2,0,0.3,0.1,0.4
				c0.2,0.1,0.3,0,0.4-0.1c0.4-0.9,0.6-1.8,0.6-2.8V9.7c0-1.2-0.5-2.4-1.3-3.2l-0.9-0.9V5.3h2.1c0.5,0,0.9-0.4,0.9-0.9V1.8
				C14.3,0.8,13.5,0,12.5,0L12.5,0z M13.7,4.4c0,0.2-0.1,0.3-0.3,0.3h-2.1V1.8c0-0.7,0.5-1.2,1.2-1.2c0.7,0,1.2,0.5,1.2,1.2V4.4z"/>
			<path class="st3" d="M6.4,13.7c-0.1,0-0.2,0-0.2,0.1c-0.1,0.1-0.1,0.1-0.1,0.2c0,0.1,0,0.2,0.1,0.2c0.1,0.1,0.1,0.1,0.2,0.1
				c0.1,0,0.2,0,0.2-0.1c0.1-0.1,0.1-0.1,0.1-0.2c0-0.1,0-0.2-0.1-0.2C6.6,13.7,6.5,13.7,6.4,13.7z"/>
			<path class="st3" d="M4.3,2.3C4.3,2,4,1.7,3.7,1.7H2.3C2,1.7,1.7,2,1.7,2.3v1.4C1.7,4,2,4.3,2.3,4.3h1.4C4,4.3,4.3,4,4.3,3.7V2.3
				z M3.7,3.7H2.3V2.3h1.4V3.7C3.7,3.7,3.7,3.7,3.7,3.7z"/>
			<path class="st3" d="M4.3,6.1c0-0.3-0.3-0.6-0.6-0.6H2.3C2,5.4,1.7,5.7,1.7,6.1v1.4c0,0.3,0.3,0.6,0.6,0.6h1.4
				c0.3,0,0.6-0.3,0.6-0.6V6.1z M3.7,7.4H2.3V6.1h1.4V7.4C3.7,7.4,3.7,7.4,3.7,7.4z"/>
			<path class="st3" d="M3.7,9.2H2.3C2,9.2,1.7,9.5,1.7,9.8v1.4c0,0.3,0.3,0.6,0.6,0.6h1.4c0.3,0,0.6-0.3,0.6-0.6V9.8
				C4.3,9.5,4,9.2,3.7,9.2z M3.7,11.2H2.3V9.8h1.4V11.2C3.7,11.2,3.7,11.2,3.7,11.2z"/>
			<path class="st3" d="M9.3,4.3c0.2,0,0.3-0.1,0.3-0.3c0-0.2-0.1-0.3-0.3-0.3H7.1C6.9,3.7,6.8,3.8,6.8,4c0,0.2,0.1,0.3,0.3,0.3H9.3
				z"/>
			<path class="st3" d="M5.7,4.3c0.1,0,0.2,0,0.2-0.1C6,4.2,6,4.1,6,4s0-0.2-0.1-0.2C5.8,3.7,5.8,3.7,5.7,3.7c-0.1,0-0.2,0-0.2,0.1
				C5.4,3.8,5.4,3.9,5.4,4s0,0.2,0.1,0.2C5.5,4.3,5.6,4.3,5.7,4.3z"/>
			<path class="st3" d="M5.7,8.1h3.6c0.2,0,0.3-0.1,0.3-0.3S9.4,7.4,9.3,7.4H5.7c-0.2,0-0.3,0.1-0.3,0.3S5.5,8.1,5.7,8.1z"/>
		</g>
	</g>
</g>
</svg>
